# xmcd
#
# Track frame offsets: 
#        150
#        17784
#        32904
#        70316
#        100732
#
# Disc length: 1778 seconds
#
# Revision: 0
# Processed by: cddbd v1.5.2PL0 Copyright (c) Steve Scherf et al.
# Submitted via: ExactAudioCopy v0.95b4
#
DISCID=3b06f005
DTITLE=Unit5 - Feel the stars
DYEAR=1900
DGENRE=
TTITLE0=Radio edit
TTITLE1=Wavescope Radio Edit
TTITLE2=Club Vocal
TTITLE3=Talla 2XLC Remix
TTITLE4=Wavescope Remix
EXTD=
EXTT0=
EXTT1=
EXTT2=
EXTT3=
EXTT4=
PLAYORDER=
